<mxfile host="app.diagrams.net" modified="2024-07-15T15:13:46.635Z" agent="Mozilla/5.0 (Windows NT 10.0; Win64; x64) AppleWebKit/537.36 (KHTML, like Gecko) Chrome/126.0.0.0 Safari/537.36 Edg/126.0.0.0" version="24.6.5" etag="FdWFdg6n2C7_vyAPhOBF" type="github">
  <diagram name="Page-1" id="pe6FH2TbV_KoowzULhzN">
    <mxGraphModel>
      <root>
        <mxCell id="0" />
        <mxCell id="1" parent="0" />
      </root>
    </mxGraphModel>
  </diagram>
</mxfile>
